Normalized EMG Linear Envelopes																
nRows=39																
nColumns=17																
																
endheader																
time	        VM	        VL	        RF	       GRA	        TA	   ADDLONG	   SEMIMEM	      BFLH	        GM	        GL	       TFL	   GLUTMAX	   GLUTMED	      PIRI	    OBTINT	        QF
0.1735	0.068483	0.040011	0.04751	0.525612	0.136877	0.695545	0.19467	0.223475	0.618106	0.523888	0.38333	0.056924	0.856441	0	0	0
0.174	0.066428	0.037892	0.04713	0.532394	0.138848	0.70089	0.194578	0.221255	0.610803	0.516135	0.3857	0.054996	0.858132	0	0	0
0.1745	0.06442	0.03583	0.046787	0.539152	0.140889	0.70609	0.194452	0.219038	0.603494	0.508406	0.388026	0.053116	0.859565	0	0	0
0.175	0.062457	0.033824	0.046479	0.545883	0.143002	0.711143	0.194293	0.216825	0.59618	0.500703	0.39031	0.051284	0.860738	0	0	0
0.1755	0.060539	0.031875	0.046208	0.552582	0.145186	0.716047	0.1941	0.214616	0.58886	0.493026	0.39255	0.049499	0.861649	0	0	0
0.176	0.058665	0.029981	0.045972	0.559245	0.147443	0.720801	0.193873	0.212412	0.581537	0.485378	0.394746	0.047761	0.862297	0	0	0
0.1765	0.056836	0.028142	0.045773	0.565869	0.149774	0.725402	0.193613	0.210213	0.574209	0.477759	0.396897	0.046069	0.86268	0	0	0
0.177	0.05505	0.026357	0.04561	0.572451	0.152179	0.729849	0.193319	0.20802	0.566877	0.470172	0.399005	0.044422	0.862798	0	0	0
0.1775	0.053307	0.024625	0.045482	0.578987	0.15466	0.734142	0.192992	0.205833	0.559542	0.462618	0.401068	0.042819	0.862651	0	0	0
0.178	0.051608	0.022945	0.04539	0.585475	0.157216	0.738278	0.192633	0.203652	0.552204	0.455097	0.403086	0.041261	0.862236	0	0	0
0.1785	0.04995	0.021318	0.045334	0.591912	0.159849	0.742256	0.19224	0.201478	0.544864	0.447611	0.405059	0.039746	0.861555	0	0	0
0.179	0.048335	0.019741	0.045314	0.598296	0.162559	0.746075	0.191816	0.199311	0.537522	0.440162	0.406987	0.038274	0.860606	0	0	0
0.1795	0.04676	0.018216	0.04533	0.604624	0.165347	0.749737	0.19136	0.197153	0.530179	0.43275	0.408869	0.036845	0.859391	0	0	0
0.18	0.045227	0.01674	0.045382	0.610893	0.168213	0.75324	0.190873	0.195002	0.522837	0.425377	0.410706	0.035457	0.85791	0	0	0
0.1805	0.043734	0.015312	0.045469	0.617101	0.171159	0.756588	0.190356	0.192861	0.515497	0.418045	0.412496	0.03411	0.856167	0	0	0
0.181	0.042281	0.013934	0.045593	0.623244	0.174184	0.75978	0.189809	0.190729	0.50816	0.410755	0.41424	0.032803	0.854165	0	0	0
0.1815	0.040867	0.012602	0.045753	0.629322	0.177289	0.762819	0.189232	0.188608	0.500827	0.403508	0.415938	0.031537	0.851908	0	0	0
0.182	0.039493	0.011318	0.04595	0.635332	0.180476	0.765708	0.188627	0.186497	0.493501	0.396306	0.417589	0.03031	0.849401	0	0	0
0.1825	0.038156	0.01008	0.046183	0.641271	0.183744	0.768446	0.187993	0.184397	0.486183	0.389151	0.419194	0.029121	0.84665	0	0	0
0.183	0.036858	0.008887	0.046453	0.647138	0.187095	0.771037	0.187331	0.182308	0.478876	0.382044	0.420752	0.027971	0.843661	0	0	0
0.1835	0.035597	0.007738	0.046759	0.652931	0.190528	0.773482	0.186642	0.180231	0.471582	0.374985	0.422263	0.026858	0.840441	0	0	0
0.184	0.034373	0.006634	0.047103	0.658648	0.194044	0.775782	0.185925	0.178165	0.464303	0.367978	0.423727	0.025782	0.836995	0	0	0
0.1845	0.033186	0.005573	0.047484	0.664287	0.197644	0.777938	0.185183	0.176112	0.457042	0.361023	0.425144	0.024743	0.833331	0	0	0
0.185	0.032034	0.004554	0.047902	0.669846	0.201328	0.779951	0.184415	0.174071	0.449802	0.354121	0.426512	0.023739	0.829455	0	0	0
0.1855	0.030918	0.003576	0.048358	0.675325	0.205097	0.781823	0.183622	0.172043	0.442583	0.347275	0.427833	0.022771	0.825374	0	0	0
0.186	0.029837	0.00264	0.048851	0.68072	0.20895	0.783554	0.182805	0.170027	0.43539	0.340486	0.429105	0.021837	0.821094	0	0	0
0.1865	0.028791	0.001744	0.049383	0.68603	0.212888	0.785145	0.181966	0.168024	0.428223	0.333755	0.430329	0.020937	0.816621	0	0	0
0.187	0.027778	0.000887	0.049952	0.691254	0.216912	0.786596	0.181104	0.166035	0.421086	0.327084	0.431504	0.02007	0.811961	0	0	0
0.1875	0.026798	0.000069	0.05056	0.696391	0.221021	0.787908	0.180222	0.164059	0.413981	0.320475	0.432631	0.019236	0.807121	0	0	0
0.188	0.025852	0	0.051205	0.701438	0.225215	0.789083	0.179319	0.162097	0.406909	0.313929	0.433709	0.018435	0.802105	0	0	0
0.1885	0.024937	0	0.05189	0.706395	0.229495	0.79012	0.178398	0.160148	0.399872	0.307448	0.434739	0.017665	0.796921	0	0	0
0.189	0.024055	0	0.052613	0.71126	0.233861	0.791022	0.177459	0.158215	0.392874	0.301032	0.435719	0.016926	0.791571	0	0	0
0.1895	0.023203	0	0.053375	0.716034	0.238312	0.79179	0.176504	0.156296	0.385914	0.294684	0.436651	0.016217	0.786063	0	0	0
0.19	0.022383	0	0.054177	0.720715	0.242848	0.792424	0.175533	0.154392	0.378997	0.288403	0.437534	0.015538	0.780401	0	0	0
0.1905	0.021592	0	0.055018	0.725302	0.24747	0.792927	0.174547	0.152503	0.372123	0.282193	0.438369	0.014889	0.77459	0	0	0
0.191	0.020831	0	0.055898	0.729795	0.252177	0.793298	0.173549	0.150629	0.365294	0.276052	0.439157	0.014268	0.768637	0	0	0
0.1915	0.020099	0	0.056818	0.734191	0.256968	0.793539	0.172537	0.148772	0.358513	0.269983	0.439897	0.013676	0.762545	0	0	0
0.192	0.019396	0	0.057778	0.738491	0.261843	0.793652	0.171514	0.14693	0.351781	0.263986	0.440591	0.01311	0.756321	0	0	0
0.1925	0.018721	0	0.058778	0.742693	0.266802	0.793637	0.17048	0.145104	0.3451	0.258062	0.441239	0.012572	0.74997	0	0	0
